PathFileType	4	(X/Y/Z)	C:\Users\Basilio\Documents\Thesis Gigler\squatting_fais\c3dfiles\058\SLS_back_pre1\markers_experimental.trc
DataRate	CameraRate	NumFrames	NumMarkers	Units	OrigDataRate	OrigDataStartFrame	OrigNumFrames
200.000000	200.000000	4	60	mm	200.000000	0	1215
Frame#	Time	FHD			LBHD			RBHD			C7			T10			CLAV			LSHO			LUUPA			LMUPA			LDUPA			LLEP			LMEP			LUL			LRFIN			RSHO			RUPA1			RMUPA			RDUPA			RLEP			RMEP			RRAD			RUL			RUFIN			LASI			RASI			USACR			LSACR			RSACR			LTHI1			LTHI2			LTHI3			LTHI4			LLFC			LMFC			LTIB1			LTIB2			LTIB3			LTIB4			LLMAL			LMMAL			LHEE			LMT1			LMT5			RTHI			RTHI2			RTHI3			RTHI4			RLFC			RMFC			RTIB1			RTIB2			RTIB3			RTIB4			RLMAL			RMMAL			RHEE			RMT1			RMT2			RMT5			LMT2			
		X1	Y1	Z1	X2	Y2	Z2	X3	Y3	Z3	X4	Y4	Z4	X5	Y5	Z5	X6	Y6	Z6	X7	Y7	Z7	X8	Y8	Z8	X9	Y9	Z9	X10	Y10	Z10	X11	Y11	Z11	X12	Y12	Z12	X13	Y13	Z13	X14	Y14	Z14	X15	Y15	Z15	X16	Y16	Z16	X17	Y17	Z17	X18	Y18	Z18	X19	Y19	Z19	X20	Y20	Z20	X21	Y21	Z21	X22	Y22	Z22	X23	Y23	Z23	X24	Y24	Z24	X25	Y25	Z25	X26	Y26	Z26	X27	Y27	Z27	X28	Y28	Z28	X29	Y29	Z29	X30	Y30	Z30	X31	Y31	Z31	X32	Y32	Z32	X33	Y33	Z33	X34	Y34	Z34	X35	Y35	Z35	X36	Y36	Z36	X37	Y37	Z37	X38	Y38	Z38	X39	Y39	Z39	X40	Y40	Z40	X41	Y41	Z41	X42	Y42	Z42	X43	Y43	Z43	X44	Y44	Z44	X45	Y45	Z45	X46	Y46	Z46	X47	Y47	Z47	X48	Y48	Z48	X49	Y49	Z49	X50	Y50	Z50	X51	Y51	Z51	X52	Y52	Z52	X53	Y53	Z53	X54	Y54	Z54	X55	Y55	Z55	X56	Y56	Z56	X57	Y57	Z57	X58	Y58	Z58	X59	Y59	Z59	X60	Y60	Z60	

1	0	-244.6986846923829	1801.382080078125	-625.8670654296876	-403.6038208007814	1764.06884765625	-702.2457885742189	-229.4085388183594	1807.29736328125	-767.3392944335939	-420.1109619140626	1593.295776367188	-720.2621459960939	-419.8686828613282	1288.52001953125	-709.3671264648439	-262.5391235351563	1551.5546875	-701.2493896484376	-272.4665527343751	1605.554565429688	-854.4024658203127	-108.8244018554688	1529.204956054688	-946.9086914062502	-86.04827880859376	1567.64697265625	-923.0045166015627	-40.45974731445313	1528.732543945313	-932.7530517578127	32.43053054809571	1533.34326171875	-910.223815917969	32.58123779296876	1481.744873046875	-871.555114746094	297.9015197753907	1562.670776367188	-868.1555786132815	391.6443176269532	1565.283325195313	-783.918640136719	-294.6277160644532	1603.892333984375	-549.4673461914064	-131.6461029052735	1514.951049804688	-452.6472473144532	-109.8534164428711	1553.761840820313	-477.0205383300782	-62.74035644531251	1523.592407226563	-457.4515991210939	4.905779838562013	1515.112182617188	-470.0116577148439	8.540305137634279	1455.698120117188	-519.2623291015626	263.8475341796876	1548.508056640625	-580.4404296875001	271.8750305175782	1560.24609375	-501.2171020507814	354.1040039062501	1584.403442382813	-577.7791748046876	-251.2477569580079	1091.586181640625	-854.1970825195315	-237.0837707519532	1073.604858398438	-611.1509399414064	-433.102996826172	1172.786010742188	-705.7053222656251	-441.8624572753907	1143.54345703125	-735.7548217773439	-435.2867736816407	1138.50634765625	-678.2100830078126	-298.8271179199219	820.8430175781252	-954.7937011718752	-266.3719482421876	741.9639892578126	-960.957458496094	-223.0615692138672	738.3184814453126	-939.7234497070315	-295.4074707031251	688.8653564453126	-965.6495361328127	-315.2433776855469	610.9975585937501	-962.6807861328127	-292.2668457031251	571.9588623046876	-835.182067871094	-418.4619445800782	533.0762329101564	-932.0795898437502	-461.0320434570314	602.8947143554689	-963.6374511718752	-466.5808105468751	559.8336791992189	-956.8787231445315	-546.1746826171876	551.0172729492189	-926.7626953125002	-731.4382324218751	626.7457275390626	-899.1735839843752	-722.0895996093751	558.6806030273439	-829.5278320312502	-718.4716186523439	658.2159423828126	-818.664001464844	-855.609558105469	491.1757202148439	-872.376159667969	-857.4901123046877	572.8428955078126	-941.7216796875002	-350.2277832031251	865.332214355469	-556.1352539062501	-316.5595397949219	808.578063964844	-561.5837402343751	-283.4682312011719	807.5819091796877	-564.6085205078126	-349.2912292480469	733.6928100585939	-583.4506835937501	-351.0853881835938	552.9403686523439	-617.4673461914064	-326.6328430175782	552.1849975585939	-753.8727416992189	-304.8438415527344	356.7431945800782	-724.3819580078126	-338.0660400390626	272.8410949707032	-665.0928955078126	-303.7752990722657	269.0429992675782	-698.9696044921876	-314.9262695312501	228.7039489746094	-738.2797851562501	-373.9581604003907	119.107666015625	-704.2317504882814	-345.1944885253907	144.0463562011719	-791.072204589844	-440.1289062500001	101.5829772949219	-765.7797241210939	-229.6083984375001	59.33479309082033	-778.4772949218752	-223.5632781982422	60.00382232666017	-726.2715454101564	-274.4998474121094	28.9458293914795	-674.3858032226564	nan	nan	nan	
2	0.005	-244.7865600585938	1801.295654296875	-625.8983154296876	-403.571014404297	1763.930541992188	-702.2219848632814	-229.5574645996094	1807.241333007813	-767.3277587890626	-420.1740112304689	1593.2138671875	-720.2587280273439	-419.849090576172	1288.35693359375	-709.3597412109376	-262.6135253906251	1551.359008789063	-701.1995849609376	-272.5861206054688	1605.387573242188	-854.4119873046877	-108.8612213134766	1529.007934570313	-946.9241943359377	-86.09218597412111	1567.473876953125	-922.9898071289065	-40.49381256103516	1528.577270507813	-932.7522583007815	32.33615875244141	1533.271850585938	-910.2424926757815	32.58045959472657	1481.563598632813	-871.583435058594	297.8169860839844	1562.641479492188	-868.250427246094	390.988250732422	1564.863647460938	-784.771667480469	-294.6289367675782	1603.763916015625	-549.4818115234376	-131.6194915771485	1514.859375	-452.685272216797	-109.8422927856446	1553.70166015625	-476.9877929687501	-62.73538970947267	1523.525390625	-457.467254638672	5.012051105499268	1515.091552734375	-470.0300903320314	8.632046699523928	1455.705078125	-519.2833251953126	263.9292907714844	1548.572875976563	-580.4094848632814	271.9010925292969	1560.296020507813	-501.1672668457032	354.4681396484376	1585.040283203125	-577.4589233398439	-251.2737121582032	1091.47216796875	-854.3199462890627	-236.9825592041016	1073.462768554688	-611.5766601562501	-433.2631835937501	1172.593994140625	-705.5927124023439	-441.8811645507814	1143.3486328125	-735.6857299804689	-435.2691955566407	1138.361938476563	-678.1712646484376	-298.7704467773438	820.7459716796877	-954.7669677734377	-266.2199096679688	741.8264770507814	-960.9472656250002	-222.926254272461	738.2415771484376	-939.6968383789065	-295.2697448730469	688.7675781250001	-965.6418457031252	-314.9980468750001	610.8278808593751	-962.7009887695315	-292.0126953125001	571.7194824218751	-835.2233886718752	-418.1488647460939	532.7144775390626	-932.247985839844	-460.8838500976564	602.4924926757814	-963.5897216796877	-466.3777770996095	559.5031127929689	-956.8759765625002	-545.8022460937501	550.4451293945314	-926.7969970703127	-731.1790771484376	625.5108032226564	-899.267272949219	-721.7895507812501	557.4285888671876	-829.5372314453127	-718.4345092773439	657.2278442382814	-818.8144531250002	-855.0588989257815	489.8883361816407	-872.8264770507815	-857.202575683594	571.6258544921876	-941.9924926757815	-349.7836303710938	865.1796875000002	-556.1445312500001	-316.0746765136719	808.380065917969	-561.6946411132814	-283.2080383300782	807.5735473632815	-564.6491699218751	-349.0121154785157	733.6343383789064	-583.4192504882814	-350.5741271972657	552.7364501953126	-617.5228881835939	-326.1334838867188	552.0220947265626	-753.8721313476564	-304.6312561035157	356.5623474121094	-724.3601074218751	-338.0781860351563	272.0768432617188	-664.9251098632814	-303.5748901367188	268.9363098144532	-698.8701171875001	-314.8687133789063	228.6572265625001	-738.2036743164064	-373.9255065917969	119.0815124511719	-704.2597045898439	-345.1095275878907	143.976318359375	-791.0806274414065	-440.0900878906251	101.5551300048828	-765.7994995117189	-229.6114654541016	59.33333587646486	-778.4976196289065	-223.4978942871094	59.99647140502931	-726.2617187500001	-274.4657287597657	28.95541954040528	-674.3679809570314	-856.5078735351565	505.9415588378907	-920.055114746094	
3	0.01	-244.8375854492188	1801.239501953125	-625.9432983398439	-403.5043029785157	1763.775512695313	-702.1901245117189	-229.6002044677735	1807.192016601563	-767.3377075195314	-420.2015380859376	1593.144165039063	-720.1996459960939	-419.8902587890626	1288.21240234375	-709.3425903320314	-262.6165771484376	1551.1416015625	-701.2015991210939	-272.6995544433594	1605.217163085938	-854.3614501953127	-108.9331665039063	1528.792114257813	-946.9217529296877	-86.18066406250001	1567.290893554688	-923.0535278320315	-40.6286849975586	1528.447509765625	-932.751892089844	32.23132324218751	1533.158203125	-910.2447509765627	32.48292922973634	1481.323974609375	-871.5798339843752	297.7706604003907	1562.575927734375	-868.3688964843752	390.9757690429689	1564.857421875	-784.9211425781252	-294.6438293457032	1603.6103515625	-549.4599609375001	-131.5663299560547	1514.80224609375	-452.6342773437501	-109.7922134399414	1553.572265625	-477.0255737304689	-62.67247009277345	1523.458129882813	-457.4837951660157	5.075804233551026	1515.005859375	-470.0942993164064	8.634346008300783	1456.135986328125	-521.9163818359376	264.0585632324219	1548.610229492188	-580.3677978515626	271.9389038085938	1560.353759765625	-501.1222229003907	354.5211791992188	1585.130737304688	-577.2391967773439	-251.2838592529297	1091.320068359375	-854.467224121094	-236.9060516357422	1073.337158203125	-611.9000244140626	-433.287322998047	1172.49609375	-705.5835571289064	-441.9320068359376	1143.158081054688	-735.6003417968751	-435.1763916015626	1138.193603515625	-678.1479492187501	-298.6970214843751	820.6085205078127	-954.802185058594	-266.1473083496094	741.6988525390626	-960.988464355469	-222.7572784423829	738.1682128906251	-939.7549438476565	-295.1057434082032	688.6368408203126	-965.6552734375002	-314.8500671386719	610.6716918945314	-962.6806640625002	-291.7844543457032	571.5276489257814	-835.2718505859377	-417.9712219238282	532.4692993164064	-932.1818847656252	-460.608123779297	601.9359741210939	-963.5745849609377	-466.1054077148439	559.1460571289064	-956.8968505859377	-545.5273437500001	549.9028930664064	-926.8322753906252	-731.1953125000001	624.8604125976564	-899.3965454101565	-721.7828979492189	556.7036743164064	-829.4443969726565	-718.5577392578126	656.2508544921876	-818.776550292969	-854.424987792969	488.585174560547	-873.3283691406252	-856.7596435546877	570.3529052734376	-942.2039794921877	-349.6100769042969	865.1069946289065	-556.0979003906251	-315.6955261230469	808.5371093750002	-561.6735839843751	-282.9883422851563	807.5645751953127	-564.6830444335939	-348.6170349121094	733.5709838867189	-583.3649902343751	-350.2664184570313	552.6483764648439	-617.4812622070314	-325.6097106933594	551.9169311523439	-753.7928466796876	-304.3390808105469	356.4617919921876	-724.1558837890626	-338.0221862792969	272.0317687988282	-664.8557739257814	-303.4518127441407	268.8506469726563	-698.7786865234376	-314.7691040039063	228.5919647216797	-738.0325317382814	-373.9315490722657	119.0375671386719	-704.1716308593751	-345.1082153320313	143.9847717285157	-790.9708251953127	-440.0977478027345	101.5692291259766	-765.7671508789064	-229.573471069336	59.360408782959	-778.4952392578127	-223.5727844238282	59.95605468750001	-726.2403564453126	-274.4593505859376	28.94155502319337	-674.3705444335939	-856.2659301757815	504.642547607422	-920.2608032226565	
4	0.015	-244.8563079833985	1801.237060546875	-625.9254760742189	-403.5067749023439	1763.676391601563	-702.1492919921876	-229.7517395019532	1807.140869140625	-767.3298339843751	-420.2544555664064	1593.089233398438	-720.1837768554689	-419.9747009277345	1288.108276367188	-709.2837524414064	-262.7344970703126	1550.985961914063	-701.1735229492189	-272.7579650878907	1605.073486328125	-854.3889160156252	-108.9985961914063	1528.543579101563	-946.9379882812502	-86.28929138183595	1567.128173828125	-923.1074829101565	-40.6296501159668	1528.298706054688	-932.7753906250002	32.13884735107423	1533.0400390625	-910.2642822265627	32.37912368774415	1480.885375976563	-871.5425415039065	297.5868225097657	1562.514770507813	-868.4311523437502	390.8878173828126	1564.81103515625	-785.0915527343752	-294.6807861328126	1603.45556640625	-549.4260864257814	-131.5012969970703	1514.69873046875	-452.6659240722657	-109.7327499389649	1553.370971679688	-477.0072631835939	-62.63084793090822	1523.397583007813	-457.4898986816407	5.113584995269776	1514.98095703125	-470.1189880371095	8.69976329803467	1456.127075195313	-521.9086914062501	264.0183105468751	1548.725830078125	-580.2672729492189	271.9612426757813	1560.378295898438	-501.0127258300782	354.6012878417969	1585.232788085938	-577.0761718750001	-251.3268127441407	1091.198120117188	-854.613952636719	-236.6126251220704	1073.265380859375	-612.1668090820314	-433.2966308593751	1172.165893554688	-705.5365600585939	-442.0164184570314	1143.011840820313	-735.5012817382814	-435.1377258300782	1138.134765625	-678.1343383789064	-298.6233215332032	820.4450683593752	-954.7926025390627	-266.1192626953126	741.6021728515626	-961.0019531250002	-222.7236938476563	738.0898437500001	-939.795837402344	-295.0327453613282	688.5174560546876	-965.6787719726565	-314.7333068847657	610.5100097656251	-962.6365966796877	-291.4377136230469	571.4030761718751	-835.2945556640627	-417.7786254882814	532.1148071289064	-932.164489746094	-460.4168395996095	601.6156005859376	-963.6062011718752	-465.9101867675782	558.7857666015626	-957.0643310546877	-545.2665405273439	549.3098754882814	-926.867858886719	-731.0586547851564	623.6489257812501	-899.3208007812502	-721.5458984375001	555.6530761718751	-829.4444580078127	-718.6784667968751	655.3145141601564	-818.786315917969	-854.2461547851565	487.2911987304689	-873.3295898437502	-856.497985839844	569.1326293945314	-942.4174804687502	-349.2724914550782	865.0415649414065	-556.0650024414064	-315.3905944824219	808.5949707031252	-561.6160888671876	-282.6351013183594	807.623718261719	-564.6978149414064	-348.0207214355469	733.4692993164064	-583.3653564453126	-349.8069152832032	552.6039428710939	-617.4295043945314	-325.0130004882813	551.9103393554689	-753.6781616210939	-304.0101928710938	356.3061523437501	-723.9766235351564	-337.9338989257813	271.9827880859376	-664.7061157226564	-303.3708496093751	268.7825317382813	-698.5462646484376	-314.6587219238282	228.5603485107422	-737.8989868164064	-373.9542236328126	119.0207138061524	-704.0786743164064	-345.0334777832032	144.0074768066407	-790.8682861328127	-440.098114013672	101.6001739501953	-765.6688232421876	-229.5548095703126	59.38497161865236	-778.4449462890627	-223.5350952148438	59.96031570434572	-726.2550659179689	-274.4918212890626	28.89181518554688	-674.3872070312501	-855.5335693359377	503.6866149902345	-920.7106933593752	
